# xmcd
#
# Track frame offsets: 
#        150
#        15904
#        35335
#        57370
#        80299
#        95669
#        112009
#        134393
#        148556
#        162263
#        182854
#
# Disc length: 2759 seconds
#
# Revision: 0
# Processed by: cddbd v1.5.2PL0 Copyright (c) Steve Scherf et al.
# Submitted via: ExactAudioCopy v1.0b4
#
DISCID=8d0ac50b
DTITLE=Albert Castiglia - Masterpiece
DYEAR=2019
DGENRE=Blues
TTITLE0=Bring On The Rain
TTITLE1=I Tried To Tell Ya
TTITLE2=Heavy
TTITLE3=Keep On Swinging
TTITLE4=Masterpiece
TTITLE5=Thoughts And Prayers
TTITLE6=Too Much Seconal
TTITLE7=Catch My Breath
TTITLE8=Red Tide Blues
TTITLE9=Love Will Win The War
TTITLE10=I Wanna Go Home
EXTD=
EXTT0=
EXTT1=
EXTT2=
EXTT3=
EXTT4=
EXTT5=
EXTT6=
EXTT7=
EXTT8=
EXTT9=
EXTT10=
PLAYORDER=
